%FSTAX23Y23*%
%MOIN*%
%SFA1B1*%

%IPPOS*%
%ADD23C,0.015000*%
%ADD24C,0.059055*%
%ADD25R,0.059055X0.059055*%
%ADD26C,0.055118*%
%ADD27C,0.062992*%
%ADD28C,0.047638*%
%ADD29R,0.044488X0.044488*%
%ADD30C,0.044488*%
%ADD31C,0.050000*%
%ADD32C,0.012000*%
%ADD33C,0.016000*%
%LNnightlight-1*%
%LPD*%
G36*
X02182Y00022D02*
X00022D01*
Y00677*
X00027Y00679*
X00265Y0044*
X00272Y00436*
X0028Y00435*
X00847*
X00851Y00428*
X00857Y00422*
X00865Y00418*
X00874Y00415*
X00883*
X00891Y00418*
X00899Y00422*
X00906Y00428*
X0091Y00436*
X00912Y00445*
Y00454*
X0091Y00463*
X00906Y00471*
X00899Y00477*
X00891Y00481*
X00883Y00484*
X00874*
X00865Y00481*
X00857Y00477*
X00855Y00474*
X00288*
X00059Y00703*
Y00865*
X00064Y00867*
X00135Y00796*
X00133Y0079*
Y00779*
X00136Y00768*
X00141Y00759*
X00149Y00751*
X00158Y00746*
X00169Y00743*
X0018*
X00191Y00746*
X002Y00751*
X00208Y00759*
X00213Y00768*
X00216Y00779*
Y0079*
X00213Y00801*
X00208Y0081*
X002Y00818*
X00191Y00823*
X0018Y00826*
X00169*
X00163Y00824*
X00089Y00898*
Y00935*
X00094Y00937*
X00135Y00896*
X00133Y0089*
Y00879*
X00136Y00868*
X00141Y00859*
X00149Y00851*
X00158Y00846*
X00169Y00843*
X0018*
X00191Y00846*
X002Y00851*
X00208Y00859*
X00213Y00868*
X00216Y00879*
Y0089*
X00213Y00901*
X00208Y0091*
X002Y00918*
X00191Y00923*
X0018Y00926*
X00169*
X00163Y00924*
X00147Y0094*
X00149Y00945*
X0017*
Y0098*
X00135*
Y00959*
X0013Y00957*
X00119Y00968*
Y01486*
X00203Y0157*
X00935*
X0095Y01555*
Y01481*
X00949Y01481*
X0094Y01476*
X00933Y01469*
X00928Y0146*
X00925Y0145*
Y01439*
X00928Y01429*
X00933Y0142*
X0094Y01413*
X00949Y01408*
X00959Y01405*
X0097*
X0098Y01408*
X00989Y01413*
X00996Y0142*
X01001Y01429*
X01004Y01439*
Y0145*
X01001Y0146*
X00996Y01469*
X00989Y01476*
Y01564*
X00988Y01571*
X00984Y01578*
X00966Y01595*
X00968Y016*
X01241*
X01371Y0147*
X0137Y01465*
Y01454*
X01373Y01444*
X01378Y01435*
X01385Y01428*
X01394Y01423*
X01404Y0142*
X01415*
X01425Y01423*
X01434Y01428*
X01441Y01435*
X01446Y01444*
X01449Y01454*
Y01465*
X01446Y01475*
X01441Y01484*
X01434Y01491*
X01425Y01496*
X01415Y01499*
X01404*
X01399Y01498*
X01272Y01625*
X01274Y0163*
X01551*
X01965Y01216*
Y01021*
X01959Y01018*
X01951Y0101*
X01946Y01001*
X01943Y0099*
Y00979*
X01946Y00968*
X01951Y00959*
X01959Y00951*
X01968Y00946*
X01979Y00943*
X0199*
X01996Y00945*
X02069Y00871*
Y00588*
X02065Y00586*
X02058Y00579*
X02053Y0057*
X0205Y0056*
Y00549*
X02053Y00539*
X02058Y0053*
X02065Y00523*
X02074Y00518*
X02084Y00515*
X02095*
X02105Y00518*
X02114Y00523*
X02121Y0053*
X02126Y00539*
X02129Y00549*
Y0056*
X02126Y0057*
X02121Y00579*
X02114Y00586*
X0211Y00588*
Y0088*
X02108Y00887*
X02104Y00894*
X02025Y00973*
X02026Y00979*
Y0099*
X02023Y01001*
X02018Y0101*
X0201Y01018*
X02004Y01021*
Y01225*
X02003Y01232*
X01999Y01239*
X01574Y01664*
X01567Y01668*
X0156Y01669*
X00155*
X00147Y01668*
X0014Y01664*
X00027Y0155*
X00022Y01552*
Y01707*
X02182*
Y00022*
G37*
%LNnightlight-2*%
%LPC*%
G36*
X0049Y01532D02*
X00285D01*
X00277Y01531*
X0027Y01526*
X0026Y01516*
X00256Y0151*
X00255Y01502*
Y01021*
X00249Y01018*
X00241Y0101*
X00236Y01001*
X00233Y0099*
Y00979*
X00236Y00968*
X00241Y00959*
X00249Y00951*
X00258Y00946*
X00269Y00943*
X0028*
X00291Y00946*
X003Y00951*
X00308Y00959*
X00313Y00968*
X00316Y00979*
Y0099*
X00313Y01001*
X00308Y0101*
X003Y01018*
X00294Y01021*
Y01492*
X00481*
X00502Y01472*
X00498Y01465*
X00495Y01455*
Y01444*
X00498Y01434*
X00503Y01425*
X0051Y01418*
X00519Y01413*
X00529Y0141*
X0054*
X0055Y01413*
X00559Y01418*
X00566Y01425*
X00571Y01434*
X00574Y01444*
Y01455*
X00571Y01465*
X00566Y01474*
X00559Y01481*
X0055Y01486*
X00541Y01489*
X0054Y0149*
X00504Y01526*
X00497Y01531*
X0049Y01532*
G37*
G36*
X01926Y01026D02*
X01843D01*
Y01005*
X01794*
X01786Y01003*
X01779Y00999*
X0177Y0099*
X01769Y00988*
X01419Y00638*
X01415Y00639*
X01404*
X01394Y00636*
X01385Y00631*
X01378Y00624*
X01376Y0062*
X01241*
X01233Y00618*
X01226Y00614*
X01196Y00584*
X01195Y00584*
X01186*
X01178Y00581*
X0117Y00577*
X01163Y00571*
X01159Y00563*
X01157Y00554*
Y00545*
X01159Y00536*
X01163Y00528*
X0117Y00522*
X01178Y00518*
X01186Y00515*
X01195*
X01204Y00518*
X01212Y00522*
X01218Y00528*
X01223Y00536*
X01225Y00545*
Y00554*
X01225Y00555*
X01249Y00579*
X01376*
X01378Y00575*
X01385Y00568*
X01394Y00563*
X01404Y0056*
X01415*
X01425Y00563*
X01434Y00568*
X01441Y00575*
X01446Y00584*
X01449Y00594*
Y00605*
X01448Y00609*
X01799Y0096*
X018Y00962*
X01802Y00964*
X01843*
Y00943*
X01926*
Y01026*
G37*
G36*
X00214Y01024D02*
X0018D01*
Y0099*
X00214*
Y01024*
G37*
G36*
X0017D02*
X00135D01*
Y0099*
X0017*
Y01024*
G37*
G36*
X00214Y0098D02*
X0018D01*
Y00945*
X00214*
Y0098*
G37*
G36*
X0189Y00924D02*
X0189D01*
Y0089*
X01924*
Y0089*
X01921Y009*
X01916Y00909*
X01909Y00916*
X019Y00921*
X0189Y00924*
G37*
G36*
X0028D02*
X0028D01*
Y0089*
X00314*
Y0089*
X00311Y009*
X00306Y00909*
X00299Y00916*
X0029Y00921*
X0028Y00924*
G37*
G36*
X0188D02*
X01879D01*
X01869Y00921*
X0186Y00916*
X01853Y00909*
X01848Y009*
X01845Y0089*
Y0089*
X0188*
Y00924*
G37*
G36*
X0027D02*
X00269D01*
X00259Y00921*
X0025Y00916*
X00243Y00909*
X00238Y009*
X00235Y0089*
Y0089*
X0027*
Y00924*
G37*
G36*
X01415Y01099D02*
X01404D01*
X01394Y01096*
X01385Y01091*
X01378Y01084*
X01373Y01075*
X0137Y01065*
Y01054*
X01373Y01044*
X01378Y01035*
X01385Y01028*
X01389Y01026*
Y00945*
X01388Y00945*
X01378Y00939*
X0137Y00931*
X01364Y00921*
X01361Y0091*
Y00899*
X01364Y00888*
X0137Y00878*
X01378Y0087*
X01388Y00864*
X01399Y00861*
X0141*
X01421Y00864*
X01431Y0087*
X01439Y00878*
X01445Y00888*
X01448Y00899*
Y0091*
X01445Y00921*
X01439Y00931*
X01431Y00939*
X01425Y00943*
Y01023*
X01434Y01028*
X01441Y01035*
X01446Y01044*
X01449Y01054*
Y01065*
X01446Y01075*
X01441Y01084*
X01434Y01091*
X01425Y01096*
X01415Y01099*
G37*
G36*
X0097Y01084D02*
X00959D01*
X00949Y01081*
X0094Y01076*
X00933Y01069*
X00928Y0106*
X00925Y0105*
Y01039*
X00928Y01029*
X00933Y0102*
X0094Y01013*
X00949Y01008*
Y00945*
X00948Y00945*
X00938Y00939*
X0093Y00931*
X00924Y00921*
X00921Y0091*
Y00899*
X00924Y00888*
X0093Y00878*
X00938Y0087*
X00948Y00864*
X00959Y00861*
X0097*
X00981Y00864*
X00991Y0087*
X00999Y00878*
X01005Y00888*
X01008Y00899*
Y0091*
X01005Y00921*
X00999Y00931*
X00991Y00939*
X00985Y00943*
Y01011*
X00989Y01013*
X00996Y0102*
X01001Y01029*
X01004Y01039*
Y0105*
X01001Y0106*
X00996Y01069*
X00989Y01076*
X0098Y01081*
X0097Y01084*
G37*
G36*
X0054Y01089D02*
X00529D01*
X00519Y01086*
X0051Y01081*
X00503Y01074*
X00498Y01065*
X00495Y01055*
Y01044*
X00498Y01034*
X00503Y01025*
X0051Y01018*
X00519Y01013*
Y00943*
X00513Y00939*
X00505Y00931*
X00499Y00921*
X00496Y0091*
Y00899*
X00499Y00888*
X00505Y00878*
X00513Y0087*
X00523Y00864*
X00534Y00861*
X00545*
X00556Y00864*
X00566Y0087*
X00574Y00878*
X0058Y00888*
X00583Y00899*
Y0091*
X0058Y00921*
X00574Y00931*
X00566Y00939*
X00556Y00945*
X00555Y00945*
Y01016*
X00559Y01018*
X00566Y01025*
X00571Y01034*
X00574Y01044*
Y01055*
X00571Y01065*
X00566Y01074*
X00559Y01081*
X0055Y01086*
X0054Y01089*
G37*
G36*
X01924Y0088D02*
X0189D01*
Y00845*
X0189*
X019Y00848*
X01909Y00853*
X01916Y0086*
X01921Y00869*
X01924Y00879*
Y0088*
G37*
G36*
X0188D02*
X01845D01*
Y00879*
X01848Y00869*
X01853Y0086*
X0186Y00853*
X01869Y00848*
X01879Y00845*
X0188*
Y0088*
G37*
G36*
X00314D02*
X0028D01*
Y00845*
X0028*
X0029Y00848*
X00299Y00853*
X00306Y0086*
X00311Y00869*
X00314Y00879*
Y0088*
G37*
G36*
X0027D02*
X00235D01*
Y00879*
X00238Y00869*
X00243Y0086*
X0025Y00853*
X00259Y00848*
X00269Y00845*
X0027*
Y0088*
G37*
G36*
X0199Y00926D02*
X01979D01*
X01968Y00923*
X01959Y00918*
X01951Y0091*
X01946Y00901*
X01943Y0089*
Y00879*
X01946Y00868*
X01951Y00859*
X01959Y00851*
X01968Y00846*
X01979Y00843*
X0199*
X02001Y00846*
X0201Y00851*
X02018Y00859*
X02023Y00868*
X02026Y00879*
Y0089*
X02023Y00901*
X02018Y0091*
X0201Y00918*
X02001Y00923*
X0199Y00926*
G37*
G36*
X00545Y00846D02*
X00545D01*
Y0081*
X00581*
Y0081*
X00578Y00821*
X00573Y0083*
X00565Y00838*
X00556Y00843*
X00545Y00846*
G37*
G36*
X0141D02*
X0141D01*
Y0081*
X01446*
Y0081*
X01443Y00821*
X01438Y0083*
X0143Y00838*
X01421Y00843*
X0141Y00846*
G37*
G36*
X0097D02*
X0097D01*
Y0081*
X01006*
Y0081*
X01003Y00821*
X00998Y0083*
X0099Y00838*
X00981Y00843*
X0097Y00846*
G37*
G36*
X00535D02*
X00534D01*
X00523Y00843*
X00514Y00838*
X00506Y0083*
X00501Y00821*
X00498Y0081*
Y0081*
X00535*
Y00846*
G37*
G36*
X014D02*
X01399D01*
X01388Y00843*
X01379Y00838*
X01371Y0083*
X01366Y00821*
X01363Y0081*
Y0081*
X014*
Y00846*
G37*
G36*
X0096D02*
X00959D01*
X00948Y00843*
X00939Y00838*
X00931Y0083*
X00926Y00821*
X00923Y0081*
Y0081*
X0096*
Y00846*
G37*
G36*
X01446Y008D02*
X0141D01*
Y00763*
X0141*
X01421Y00766*
X0143Y00771*
X01438Y00779*
X01443Y00788*
X01446Y00799*
Y008*
G37*
G36*
X014D02*
X01363D01*
Y00799*
X01366Y00788*
X01371Y00779*
X01379Y00771*
X01388Y00766*
X01399Y00763*
X014*
Y008*
G37*
G36*
X01006D02*
X0097D01*
Y00763*
X0097*
X00981Y00766*
X0099Y00771*
X00998Y00779*
X01003Y00788*
X01006Y00799*
Y008*
G37*
G36*
X0096D02*
X00923D01*
Y00799*
X00926Y00788*
X00931Y00779*
X00939Y00771*
X00948Y00766*
X00959Y00763*
X0096*
Y008*
G37*
G36*
X00581D02*
X00545D01*
Y00763*
X00545*
X00556Y00766*
X00565Y00771*
X00573Y00779*
X00578Y00788*
X00581Y00799*
Y008*
G37*
G36*
X00535D02*
X00498D01*
Y00799*
X00501Y00788*
X00506Y00779*
X00514Y00771*
X00523Y00766*
X00534Y00763*
X00535*
Y008*
G37*
G36*
X0199Y00826D02*
X01979D01*
X01968Y00823*
X01959Y00818*
X01951Y0081*
X01946Y00801*
X01943Y0079*
Y00779*
X01946Y00768*
X01951Y00759*
X01959Y00751*
X01968Y00746*
X01979Y00743*
X0199*
X02001Y00746*
X0201Y00751*
X02018Y00759*
X02023Y00768*
X02026Y00779*
Y0079*
X02023Y00801*
X02018Y0081*
X0201Y00818*
X02001Y00823*
X0199Y00826*
G37*
G36*
X0189D02*
X01879D01*
X01868Y00823*
X01859Y00818*
X01851Y0081*
X01846Y00801*
X01843Y0079*
Y00779*
X01846Y00768*
X01851Y00759*
X01859Y00751*
X01868Y00746*
X01879Y00743*
X0189*
X01901Y00746*
X0191Y00751*
X01918Y00759*
X01923Y00768*
X01926Y00779*
Y0079*
X01923Y00801*
X01918Y0081*
X0191Y00818*
X01901Y00823*
X0189Y00826*
G37*
G36*
X0091Y00582D02*
X00883D01*
Y00555*
X0091*
Y00582*
G37*
G36*
X00873D02*
X00846D01*
Y00555*
X00873*
Y00582*
G37*
G36*
X0091Y00545D02*
X00883D01*
Y00517*
X0091*
Y00545*
G37*
G36*
X00873D02*
X00846D01*
Y00517*
X00873*
Y00545*
G37*
G36*
X01195Y00384D02*
X01186D01*
X01178Y00381*
X0117Y00377*
X01163Y00371*
X01159Y00363*
X01157Y00354*
Y00345*
X01159Y00336*
X01163Y00328*
X0117Y00322*
X01178Y00318*
X01186Y00315*
X01195*
X01204Y00318*
X01212Y00322*
X01218Y00328*
X01223Y00336*
X01225Y00345*
Y00354*
X01223Y00363*
X01218Y00371*
X01212Y00377*
X01204Y00381*
X01195Y00384*
G37*
G36*
X01695Y00594D02*
X01684D01*
X01674Y00591*
X01665Y00586*
X01658Y00579*
X01653Y0057*
X0165Y0056*
Y00549*
X01653Y00539*
X01658Y0053*
X01665Y00523*
X01669Y00521*
Y00393*
X01663Y00389*
X01655Y00381*
X01649Y00371*
X01646Y0036*
Y00349*
X01649Y00338*
X01655Y00328*
X01663Y0032*
X01673Y00314*
X01684Y00311*
X01695*
X01706Y00314*
X01716Y0032*
X01724Y00328*
X0173Y00338*
X01733Y00349*
Y0036*
X0173Y00371*
X01724Y00381*
X01716Y00389*
X0171Y00393*
Y00521*
X01714Y00523*
X01721Y0053*
X01726Y00539*
X01729Y00549*
Y0056*
X01726Y0057*
X01721Y00579*
X01714Y00586*
X01705Y00591*
X01695Y00594*
G37*
G36*
X00115Y00283D02*
Y00255D01*
X00143*
X00141Y00263*
X00137Y0027*
X0013Y00277*
X00123Y00281*
X00115Y00283*
G37*
G36*
X00883Y00282D02*
Y00255D01*
X0091*
X00908Y00262*
X00904Y00269*
X00898Y00275*
X00891Y0028*
X00883Y00282*
G37*
G36*
X00873D02*
X00866Y0028D01*
X00858Y00275*
X00852Y00269*
X00848Y00262*
X00846Y00255*
X00873*
Y00282*
G37*
G36*
X00105Y00283D02*
X00096Y00281D01*
X00089Y00277*
X00082Y0027*
X00078Y00263*
X00076Y00255*
X00105*
Y00283*
G37*
G36*
X0091Y00245D02*
X00883D01*
Y00217*
X00891Y00219*
X00898Y00224*
X00904Y0023*
X00908Y00237*
X0091Y00245*
G37*
G36*
X00873D02*
X00846D01*
X00848Y00237*
X00852Y0023*
X00858Y00224*
X00866Y00219*
X00873Y00217*
Y00245*
G37*
G36*
X00143D02*
X00115D01*
Y00216*
X00123Y00218*
X0013Y00222*
X00137Y00229*
X00141Y00236*
X00143Y00245*
G37*
G36*
X00105D02*
X00076D01*
X00078Y00236*
X00082Y00229*
X00089Y00222*
X00096Y00218*
X00105Y00216*
Y00245*
G37*
G36*
X01195Y00284D02*
X01186D01*
X01178Y00281*
X0117Y00277*
X01163Y00271*
X01159Y00263*
X01157Y00254*
Y00245*
X01159Y00236*
X01163Y00228*
X0117Y00222*
X01178Y00218*
X01186Y00215*
X01195*
X01204Y00218*
X01212Y00222*
X01218Y00228*
X01223Y00236*
X01225Y00245*
Y00254*
X01223Y00263*
X01218Y00271*
X01212Y00277*
X01204Y00281*
X01195Y00284*
G37*
G36*
X00114Y00385D02*
X00105D01*
X00096Y00383*
X00088Y00378*
X00081Y00371*
X00076Y00363*
X00074Y00354*
Y00345*
X00076Y00336*
X00081Y00328*
X00088Y00321*
X00096Y00316*
X00105Y00314*
X00114*
X00123Y00316*
X00131Y00321*
X00138Y00328*
X00139Y00329*
X0085*
X00851Y00328*
X00857Y00322*
X00865Y00318*
X00874Y00315*
X0088*
X0105Y00145*
X01055Y0014*
Y0014*
X01062Y00136*
X0107Y00134*
X01365*
X01372Y00136*
X01379Y0014*
X014Y00161*
X01404Y0016*
X01415*
X01425Y00163*
X01434Y00168*
X01441Y00175*
X01446Y00184*
X01449Y00194*
Y00205*
X01446Y00215*
X01441Y00224*
X01434Y00231*
X01425Y00236*
X01415Y00239*
X01404*
X01394Y00236*
X01385Y00231*
X01378Y00224*
X01373Y00215*
X0137Y00205*
Y00194*
X01371Y0019*
X01356Y00175*
X01078*
X00911Y00341*
X00912Y00345*
Y00354*
X0091Y00363*
X00906Y00371*
X00899Y00377*
X00891Y00381*
X00883Y00384*
X00874*
X00865Y00381*
X00857Y00377*
X00851Y00371*
X0085Y0037*
X00139*
X00138Y00371*
X00131Y00378*
X00123Y00383*
X00114Y00385*
G37*
G36*
X0028Y00826D02*
X00269D01*
X00258Y00823*
X00249Y00818*
X00241Y0081*
X00236Y00801*
X00233Y0079*
Y00779*
X00236Y00768*
X00241Y00759*
X00249Y00751*
X00258Y00746*
X00269Y00743*
X0028*
X00288Y00745*
X00387Y00647*
X00392Y00643*
X004Y00641*
X00973*
X01157Y00457*
X01157Y00454*
Y00445*
X01159Y00436*
X01163Y00428*
X0117Y00422*
X01178Y00418*
X01186Y00415*
X01195*
X01204Y00418*
X01212Y00422*
X01218Y00428*
X0122Y00431*
X01487*
X01649Y0027*
X01646Y0026*
Y00249*
X01649Y00238*
X01655Y00228*
X01663Y0022*
X01673Y00214*
X01684Y00211*
X01695*
X01705Y00214*
X01827Y00092*
X01832Y00088*
X0184Y00086*
X02037*
X0204Y00082*
X02047Y00075*
X02055Y0007*
X02065Y00068*
X02074*
X02084Y0007*
X02092Y00075*
X02099Y00082*
X02104Y0009*
X02107Y001*
Y00109*
X02104Y00119*
X02099Y00127*
X02092Y00134*
X02084Y00139*
X02074Y00142*
X02065*
X02055Y00139*
X02047Y00134*
X0204Y00127*
X02037Y00123*
X01847*
X01731Y00239*
X01733Y00249*
Y0026*
X0173Y00271*
X01724Y00281*
X01716Y00289*
X01706Y00295*
X01695Y00298*
X01684*
X01674Y00296*
X01507Y00462*
X01502Y00466*
X01495Y00468*
X0122*
X01218Y00471*
X01212Y00477*
X01204Y00481*
X01195Y00484*
X01186*
X01183Y00483*
X00994Y00672*
X00988Y00676*
X00981Y00678*
X00407*
X00314Y00771*
X00316Y00779*
Y0079*
X00313Y00801*
X00308Y0081*
X003Y00818*
X00291Y00823*
X0028Y00826*
G37*
%LNnightlight-3*%
%LPD*%
G54D23*
X001Y0096D02*
X00175Y00885D01*
X001Y01495D02*
X00195Y0159D01*
X001Y0096D02*
Y01495D01*
X0007Y01515D02*
X00175Y0162D01*
X0007Y0089D02*
X00175Y00785D01*
X0007Y0089D02*
Y01515D01*
X00944Y0159D02*
X0097Y01564D01*
X00195Y0159D02*
X00944D01*
X0156Y0165D02*
X01985Y01225D01*
X0004Y01535D02*
X00155Y0165D01*
X0156*
X0125Y0162D02*
X0141Y0146D01*
X00175Y0162D02*
X0125D01*
X00526Y01458D02*
Y01476D01*
X0049Y01512D02*
X00526Y01476D01*
X00275Y01502D02*
X00285Y01512D01*
X00275Y00985D02*
Y01502D01*
X00285Y01512D02*
X0049D01*
X0028Y00455D02*
X00878D01*
X0004Y00695D02*
X0028Y00455D01*
X01985Y00985D02*
Y01225D01*
X0097Y0145D02*
Y01564D01*
X0004Y00695D02*
Y01535D01*
G54D24*
X01985Y00785D03*
X01885D03*
X01985Y00885D03*
X01885D03*
X01985Y00985D03*
X00275D03*
X00175Y00885D03*
X00275D03*
X00175Y00785D03*
X00275D03*
G54D25*
X01885Y00985D03*
X00175D03*
G54D26*
X00965Y01445D03*
Y01045D03*
X0141Y0146D03*
Y0106D03*
X00535Y0145D03*
Y0105D03*
X0141Y002D03*
Y006D03*
X0169Y00555D03*
X0209D03*
G54D27*
X01405Y00905D03*
Y00805D03*
X0054Y00905D03*
Y00805D03*
X00965Y00905D03*
Y00805D03*
X0169Y00255D03*
Y00355D03*
G54D28*
X0011Y0035D03*
Y0025D03*
G54D29*
X00878Y0055D03*
G54D30*
X00878Y0045D03*
Y0035D03*
Y0025D03*
X01191D03*
Y0035D03*
Y0045D03*
Y0055D03*
G54D31*
X0207Y00105D03*
G54D32*
X0184Y00105D02*
X0206D01*
X0169Y00255D02*
X0184Y00105D01*
X00981Y0066D02*
X01191Y0045D01*
X00275Y00785D02*
X004Y0066D01*
X00981*
X01407Y00912D02*
Y01062D01*
X00967Y00912D02*
Y01047D01*
X00537Y00912D02*
Y01057D01*
X01495Y0045D02*
X0169Y00255D01*
X01191Y0045D02*
X01495D01*
G54D33*
X0169Y00355D02*
Y00555D01*
X0209D02*
Y0088D01*
X01985Y00985D02*
X0209Y0088D01*
X00878Y00346D02*
X01065Y00159D01*
X0107Y00155*
X00878Y00346D02*
Y0035D01*
X0107Y00155D02*
X01365D01*
X0141Y002*
X01191Y0055D02*
X01241Y006D01*
X0141*
X01785Y00975D02*
X01794Y00985D01*
X01785Y00975D02*
Y00975D01*
X01794Y00985D02*
X01885D01*
X0141Y006D02*
X01785Y00975D01*
X0011Y0035D02*
X00878D01*
M02*