%FSTAX23Y23*%
%MOIN*%
%SFA1B1*%

%IPPOS*%
%ADD10C,0.005000*%
%ADD11C,0.003937*%
%ADD12C,0.007874*%
%ADD13C,0.008000*%
%ADD14C,0.010000*%
%LNnightlight-1*%
%LPD*%
G54D10*
X01621Y00797D02*
D01*
X01625Y00798*
X01629Y00798*
X01633Y00799*
X01637Y008*
X01641Y00801*
X01644Y00802*
X01648Y00804*
X01651Y00806*
X01655Y00808*
X01658Y00811*
X01661Y00813*
X01663Y00816*
X01666Y00819*
X01668Y00823*
X0167Y00826*
X01672Y00829*
X01674Y00833*
X01675Y00837*
X01676Y00841*
X01677Y00845*
X01678Y00849*
X01678Y00853*
Y00856*
X01678Y0086*
X01677Y00864*
X01676Y00868*
X01675Y00872*
X01674Y00876*
X01672Y0088*
X0167Y00883*
X01668Y00886*
X01666Y0089*
X01663Y00893*
X01661Y00896*
X01658Y00898*
X01655Y00901*
X01651Y00903*
X01648Y00905*
X01644Y00907*
X01641Y00908*
X01637Y00909*
X01633Y0091*
X01629Y00911*
X01625Y00911*
X01621Y00912*
X00756Y00797D02*
D01*
X0076Y00798*
X00764Y00798*
X00768Y00799*
X00772Y008*
X00776Y00801*
X00779Y00802*
X00783Y00804*
X00786Y00806*
X0079Y00808*
X00793Y00811*
X00796Y00813*
X00798Y00816*
X00801Y00819*
X00803Y00823*
X00805Y00826*
X00807Y00829*
X00809Y00833*
X0081Y00837*
X00811Y00841*
X00812Y00845*
X00813Y00849*
X00813Y00853*
Y00856*
X00813Y0086*
X00812Y00864*
X00811Y00868*
X0081Y00872*
X00809Y00876*
X00807Y0088*
X00805Y00883*
X00803Y00886*
X00801Y0089*
X00798Y00893*
X00796Y00896*
X00793Y00898*
X0079Y00901*
X00786Y00903*
X00783Y00905*
X00779Y00907*
X00776Y00908*
X00772Y00909*
X00768Y0091*
X00764Y00911*
X0076Y00911*
X00756Y00912*
X01181Y00797D02*
D01*
X01185Y00798*
X01189Y00798*
X01193Y00799*
X01197Y008*
X01201Y00801*
X01204Y00802*
X01208Y00804*
X01211Y00806*
X01215Y00808*
X01218Y00811*
X01221Y00813*
X01223Y00816*
X01226Y00819*
X01228Y00823*
X0123Y00826*
X01232Y00829*
X01234Y00833*
X01235Y00837*
X01236Y00841*
X01237Y00845*
X01238Y00849*
X01238Y00853*
Y00856*
X01238Y0086*
X01237Y00864*
X01236Y00868*
X01235Y00872*
X01234Y00876*
X01232Y0088*
X0123Y00883*
X01228Y00886*
X01226Y0089*
X01223Y00893*
X01221Y00896*
X01218Y00898*
X01215Y00901*
X01211Y00903*
X01208Y00905*
X01204Y00907*
X01201Y00908*
X01197Y00909*
X01193Y0091*
X01189Y00911*
X01185Y00911*
X01181Y00912*
X01906Y00247D02*
D01*
X0191Y00248*
X01914Y00248*
X01918Y00249*
X01922Y0025*
X01926Y00251*
X01929Y00252*
X01933Y00254*
X01936Y00256*
X0194Y00258*
X01943Y00261*
X01946Y00263*
X01948Y00266*
X01951Y00269*
X01953Y00273*
X01955Y00276*
X01957Y00279*
X01959Y00283*
X0196Y00287*
X01961Y00291*
X01962Y00295*
X01963Y00299*
X01963Y00303*
Y00306*
X01963Y0031*
X01962Y00314*
X01961Y00318*
X0196Y00322*
X01959Y00326*
X01957Y0033*
X01955Y00333*
X01953Y00336*
X01951Y0034*
X01948Y00343*
X01946Y00346*
X01943Y00348*
X0194Y00351*
X01936Y00353*
X01933Y00355*
X01929Y00357*
X01926Y00358*
X01922Y00359*
X01918Y0036*
X01914Y00361*
X0191Y00361*
X01906Y00362*
X01326Y00768D02*
Y00941D01*
X01578*
Y00768D02*
Y00941D01*
X01326Y00768D02*
X01578D01*
Y00912D02*
X01621D01*
X01578Y00797D02*
X01621D01*
X00461Y00768D02*
Y00941D01*
X00713*
Y00768D02*
Y00941D01*
X00461Y00768D02*
X00713D01*
Y00912D02*
X00756D01*
X00713Y00797D02*
X00756D01*
X00886Y00768D02*
Y00941D01*
X01138*
Y00768D02*
Y00941D01*
X00886Y00768D02*
X01138D01*
Y00912D02*
X01181D01*
X01138Y00797D02*
X01181D01*
X01863Y00247D02*
X01906D01*
X01863Y00362D02*
X01906D01*
X01611Y00218D02*
X01863D01*
Y00391*
X01611D02*
X01863D01*
X01611Y00218D02*
Y00391D01*
G54D11*
X00187Y00359D02*
D01*
X00182Y00364*
X00177Y00369*
X00172Y00373*
X00167Y00377*
X00161Y00381*
X00155Y00385*
X00149Y00388*
X00142Y0039*
X00136Y00392*
X00129Y00394*
X00122Y00395*
X00116Y00396*
X00109Y00396*
X00102Y00395*
X00095Y00395*
X00088Y00393*
X00081Y00392*
X00075Y0039*
X00069Y00387*
X00062Y00384*
X00057Y0038*
X00051Y00376*
X00045Y00372*
X0004Y00367*
X00036Y00362*
X00032Y00359*
Y0024D02*
D01*
X00037Y00235*
X00042Y0023*
X00047Y00226*
X00052Y00222*
X00058Y00218*
X00064Y00214*
X0007Y00211*
X00077Y00209*
X00083Y00207*
X0009Y00205*
X00097Y00204*
X00103Y00203*
X0011Y00203*
X00117Y00204*
X00124Y00204*
X00131Y00206*
X00138Y00207*
X00144Y00209*
X0015Y00212*
X00157Y00215*
X00162Y00219*
X00168Y00223*
X00174Y00227*
X00179Y00232*
X00183Y00237*
X00187Y0024*
X00032Y0024D02*
Y00359D01*
X00187Y0024D02*
Y00359D01*
G54D12*
X01835Y00735D02*
Y00926D01*
Y00735D02*
Y01035D01*
X02035Y00735D02*
Y01035D01*
X01835D02*
X02035D01*
X01835Y00735D02*
X02035D01*
X00925Y01365D02*
X01005D01*
Y01125D02*
Y01365D01*
X00925Y01125D02*
X01005D01*
X00925D02*
Y01365D01*
X00965D02*
Y01405D01*
Y01085D02*
Y01125D01*
X0137Y0138D02*
X0145D01*
Y0114D02*
Y0138D01*
X0137Y0114D02*
X0145D01*
X0137D02*
Y0138D01*
X0141D02*
Y0142D01*
Y011D02*
Y0114D01*
X00495Y0137D02*
X00575D01*
Y0113D02*
Y0137D01*
X00495Y0113D02*
X00575D01*
X00495D02*
Y0137D01*
X00535D02*
Y0141D01*
Y0109D02*
Y0113D01*
X00125Y00735D02*
X00325D01*
X00125Y01035D02*
X00325D01*
Y00735D02*
Y01035D01*
X00125Y00735D02*
Y01035D01*
Y00735D02*
Y00926D01*
X0141Y0024D02*
Y0028D01*
Y0052D02*
Y0056D01*
X0137Y0028D02*
Y0052D01*
Y0028D02*
X0145D01*
Y0052*
X0137D02*
X0145D01*
X0173Y00555D02*
X0177D01*
X0201D02*
X0205D01*
X0177Y00595D02*
X0201D01*
X0177Y00515D02*
Y00595D01*
Y00515D02*
X0201D01*
Y00595*
X00856Y006D02*
X01164D01*
X00905Y002D02*
X01164D01*
G54D13*
X01865Y01065D02*
Y01048D01*
Y01056*
X01914*
X01906Y01065*
X01914Y00691D02*
Y00725D01*
X01889*
X01898Y00708*
Y007*
X01889Y00691*
X01873*
X01865Y007*
Y00716*
X01873Y00725*
X02014Y00691D02*
X02006Y00708D01*
X01989Y00725*
X01973*
X01965Y00716*
Y007*
X01973Y00691*
X01981*
X01989Y007*
Y00725*
X01965Y01051D02*
Y01085D01*
X01998Y01051*
X02006*
X02014Y0106*
Y01076*
X02006Y01085*
X00304Y00691D02*
X00296Y00708D01*
X00279Y00725*
X00263*
X00255Y00716*
Y007*
X00263Y00691*
X00271*
X00279Y007*
Y00725*
X00204Y00691D02*
Y00725D01*
X00179*
X00188Y00708*
Y007*
X00179Y00691*
X00163*
X00155Y007*
Y00716*
X00163Y00725*
X00255Y01056D02*
Y0109D01*
X00288Y01056*
X00296*
X00304Y01065*
Y01081*
X00296Y0109*
X00155Y01075D02*
Y01058D01*
Y01066*
X00204*
X00196Y01075*
G54D14*
X00931Y01507D02*
X0095D01*
X0094*
Y01566*
X00931*
X0098Y01507D02*
X01D01*
X0099*
Y01546*
X0098*
X0103Y01507D02*
Y01546D01*
X0104*
X0105Y01536*
Y01507*
Y01536*
X0106Y01546*
X0107Y01536*
Y01507*
X0113D02*
X0109D01*
X0113Y01546*
Y01556*
X0112Y01566*
X011*
X0109Y01556*
X01315Y01505D02*
X01335D01*
X01325*
Y01564*
X01315*
X01365Y01505D02*
X01385D01*
X01375*
Y01544*
X01365*
X01415Y01505D02*
Y01544D01*
X01424*
X01434Y01535*
Y01505*
Y01535*
X01444Y01544*
X01454Y01535*
Y01505*
X01474Y01554D02*
X01484Y01564D01*
X01504*
X01514Y01554*
Y01544*
X01504Y01535*
X01494*
X01504*
X01514Y01525*
Y01515*
X01504Y01505*
X01484*
X01474Y01515*
X00501Y01512D02*
X0052D01*
X0051*
Y01571*
X00501*
X0055Y01512D02*
X0057D01*
X0056*
Y01551*
X0055*
X006Y01512D02*
Y01551D01*
X0061*
X0062Y01541*
Y01512*
Y01541*
X0063Y01551*
X0064Y01541*
Y01512*
X0066D02*
X0068D01*
X0067*
Y01571*
X0066Y01561*
X0152Y00999D02*
Y0096D01*
Y0098*
X0153Y00989*
X0154Y00999*
X01549*
X00635Y0095D02*
X00644D01*
X00654Y0096*
Y01009*
X00625*
X00615Y00999*
Y0098*
X00625Y0097*
X00654*
X0105Y01009D02*
Y0095D01*
X01079*
X01089Y0096*
Y0097*
Y0098*
X01079Y00989*
X0105*
X0178Y01189D02*
Y0115D01*
X018Y0113*
X0182Y0115*
Y01189*
X0188Y01179D02*
X0187Y01189D01*
X0185*
X0184Y01179*
Y0114*
X0185Y0113*
X0187*
X0188Y0114*
X0194Y01179D02*
X0193Y01189D01*
X0191*
X019Y01179*
Y0114*
X0191Y0113*
X0193*
X0194Y0114*
X0196Y0113D02*
X01999Y01169D01*
X02039Y0111D02*
X02049D01*
X02059Y0112*
Y01169*
X02029*
X02019Y01159*
Y0114*
X02029Y0113*
X02059*
X02079D02*
Y01169D01*
X02109*
X02119Y01159*
Y0113*
X02179Y01189D02*
Y0113D01*
X02149*
X02139Y0114*
Y01159*
X02149Y01169*
X02179*
X0014Y01159D02*
X0016D01*
X0015*
Y011*
X0014*
X0016*
X0019D02*
X00229Y01139D01*
X00279Y01159D02*
X00259D01*
X00249Y01149*
Y0111*
X00259Y011*
X00279*
X00289Y0111*
Y01149*
X00279Y01159*
X01376Y00721D02*
Y00681D01*
X01395Y00662*
X01415Y00681*
Y00721*
X01535D02*
Y00662D01*
X01505*
X01495Y00671*
Y00691*
X01505Y00701*
X01535*
X01555Y00662D02*
X01575D01*
X01565*
Y00701*
X01555*
X01605D02*
X01625Y00662D01*
X01645Y00701*
X01665Y00662D02*
X01685D01*
X01675*
Y00701*
X01665*
X01755Y00721D02*
Y00662D01*
X01725*
X01715Y00671*
Y00691*
X01725Y00701*
X01755*
X01805Y00662D02*
X01785D01*
X01775Y00671*
Y00691*
X01785Y00701*
X01805*
X01815Y00691*
Y00681*
X01775*
X00105Y00075D02*
Y00134D01*
X00135*
X00145Y00124*
Y00105*
X00135Y00095*
X00105*
X00165Y00134D02*
Y00075D01*
Y00105*
X00175Y00114*
X00195*
X00205Y00105*
Y00075*
X00235D02*
X00255D01*
X00265Y00085*
Y00105*
X00255Y00114*
X00235*
X00225Y00105*
Y00085*
X00235Y00075*
X00294Y00124D02*
Y00114D01*
X00284*
X00304*
X00294*
Y00085*
X00304Y00075*
X00344D02*
X00364D01*
X00374Y00085*
Y00105*
X00364Y00114*
X00344*
X00334Y00105*
Y00085*
X00344Y00075*
X00394D02*
Y00134D01*
X00424*
X00434Y00124*
Y00105*
X00424Y00095*
X00394*
X00414D02*
X00434Y00075D01*
X01565Y00469D02*
X01555Y00479D01*
X01535*
X01525Y00469*
Y0043*
X01535Y0042*
X01555*
X01565Y0043*
X01615Y00479D02*
X01595D01*
X01585Y00469*
Y0043*
X01595Y0042*
X01615*
X01625Y0043*
Y00469*
X01615Y00479*
X01645Y0042D02*
Y00479D01*
X01665Y00459*
X01685Y00479*
Y0042*
X01705D02*
Y00479D01*
X01735*
X01745Y00469*
Y0045*
X01735Y0044*
X01705*
X01824Y00479D02*
Y0042D01*
X01864*
X01924Y00479D02*
X01884D01*
Y0042*
X01924*
X01884Y0045D02*
X01904D01*
X01944Y00479D02*
Y0042D01*
X01974*
X01984Y0043*
Y00469*
X01974Y00479*
X01944*
X00955Y00114D02*
X00945Y00124D01*
X00925*
X00915Y00114*
Y00075*
X00925Y00065*
X00945*
X00955Y00075*
X01005Y00124D02*
X00985D01*
X00975Y00114*
Y00075*
X00985Y00065*
X01005*
X01015Y00075*
Y00114*
X01005Y00124*
X01034Y00065D02*
Y00124D01*
X01054Y00104*
X01074Y00124*
Y00065*
X01094D02*
Y00124D01*
X01124*
X01134Y00114*
Y00095*
X01124Y00085*
X01094*
M02*